<?xml version="1.0" encoding="UTF-8"?><svg id="Layer_1" xmlns="http://www.w3.org/2000/svg" viewBox="0 0 210.54 55.35"><defs><style>.cls-1{fill:#299b82;}.cls-1,.cls-2{stroke-width:0px;}.cls-2{fill:#fff;}</style></defs><path class="cls-1" d="m27.77,35.45c-.53-.53-1.24-.83-1.99-.83s-1.46.29-1.99.83l-11.74,11.74c-.74.74-.74,1.93,0,2.67s1.93.74,2.67,0l9.19-9.19v4.61l-6.21,5.95c-.37.35-.58.83-.58,1.34,0,.51.19.99.55,1.35.73.73,1.89.74,2.63.03l3.6-3.43v2.94c0,1.04.85,1.89,1.89,1.89s1.89-.85,1.89-1.89v-2.88l3.44,3.37c.74.72,1.93.72,2.65-.01.36-.36.55-.84.55-1.34,0-.51-.2-.98-.56-1.34l-6.08-5.97v-4.62l9.19,9.19c.74.74,1.93.74,2.67,0,.74-.74.74-1.93,0-2.67l-11.74-11.74Z"/><path class="cls-1" d="m23.79,24.29c.53.53,1.24.83,1.99.83s1.46-.29,1.99-.83l11.74-11.74c.74-.74.74-1.93,0-2.67s-1.93-.74-2.67,0l-9.17,9.17v-4.63l6.86-6.86c.36-.36.55-.83.55-1.33s-.2-.98-.55-1.33c-.36-.36-.83-.55-1.33-.55h0c-.5,0-.98.2-1.33.55l-4.19,4.19v-3.37l2.51-2.51c.36-.36.55-.83.55-1.33s-.2-.98-.55-1.33c-.74-.74-1.93-.74-2.67,0l-1.74,1.74-1.74-1.74c-.74-.74-1.93-.74-2.67,0-.74.74-.74,1.93,0,2.67l2.53,2.53v3.37l-4.22-4.22c-.74-.74-1.93-.74-2.67,0-.73.73-.73,1.93,0,2.67l6.88,6.88v4.63l-9.2-9.2c-.74-.74-1.93-.74-2.67,0-.74.74-.74,1.93,0,2.67l11.74,11.74Z"/><path class="cls-1" d="m51.59,29.86c0-1.04-.85-1.89-1.89-1.89h-3.04l2.56-2.47c.37-.35.57-.83.58-1.34,0-.51-.19-.99-.55-1.35-.72-.72-1.91-.73-2.64-.02l-5.34,5.18h-4.65l9.19-9.19c.74-.74.74-1.93,0-2.67-.71-.71-1.95-.71-2.67,0l-11.74,11.74c-.53.53-.83,1.24-.83,1.99s.29,1.46.83,1.99l11.74,11.74c.36.36.83.55,1.33.55s.98-.2,1.33-.55c.73-.74.73-1.93,0-2.67l-9.19-9.19h4.64l5.34,5.25c.73.72,1.92.72,2.65-.01.36-.36.55-.83.55-1.34,0-.51-.2-.98-.56-1.34l-2.62-2.57h3.08c1.04,0,1.89-.85,1.89-1.89Z"/><path class="cls-1" d="m0,29.86c0-1.04.85-1.89,1.89-1.89h3.04l-2.56-2.47c-.37-.35-.57-.83-.58-1.34,0-.51.19-.99.55-1.35.72-.72,1.91-.73,2.64-.02l5.34,5.18h4.65l-9.19-9.19c-.74-.74-.74-1.93,0-2.67.71-.71,1.95-.71,2.67,0l11.74,11.74c.53.53.83,1.24.83,1.99s-.29,1.46-.83,1.99l-11.74,11.74c-.36.36-.83.55-1.33.55s-.98-.2-1.33-.55c-.73-.74-.73-1.93,0-2.67l9.19-9.19h-4.64l-5.34,5.25c-.73.72-1.92.72-2.65-.01-.36-.36-.55-.83-.55-1.34,0-.51.2-.98.56-1.34l2.62-2.57H1.89c-1.04,0-1.89-.85-1.89-1.89Z"/><path class="cls-2" d="m86.23,4.89c-1.6,0-2.89,1.3-2.89,2.89v8.12h-13.33V7.78c0-1.6-1.3-2.89-2.93-2.89s-2.89,1.3-2.89,2.89v21.98c0,1.6,1.3,2.89,2.93,2.89s2.89-1.3,2.89-2.89v-8.73h13.33v8.73c0,1.6,1.3,2.89,2.89,2.89s2.89-1.3,2.89-2.89V7.78c0-1.6-1.3-2.89-2.89-2.89Z"/><path class="cls-2" d="m128.03,4.89h-.84c-1.06,0-2.01.67-2.37,1.66l-6.93,19-3.16-7.93,3.49-9.24c.29-.78.19-1.65-.28-2.33-.47-.68-1.25-1.09-2.08-1.09-1.07,0-2.03.68-2.38,1.69l-2.37,6.78-2.33-6.77c-.35-1.02-1.31-1.7-2.43-1.7-.83,0-1.6.41-2.08,1.09-.47.68-.58,1.55-.29,2.32l3.46,9.24-3.08,7.92-6.88-18.77c-.41-1.13-1.5-1.89-2.7-1.89-.96,0-1.85.47-2.38,1.26-.54.79-.65,1.79-.29,2.68l8.58,21.52c.56,1.4,1.89,2.3,3.4,2.3s2.81-.88,3.38-2.25l3.64-8.76,3.68,8.76c.57,1.36,1.9,2.24,3.39,2.24s2.84-.9,3.4-2.3l8.8-22.01c.31-.78.22-1.66-.25-2.35-.47-.69-1.25-1.11-2.09-1.11Z"/><path class="cls-2" d="m186.26,6.25c-.5-.85-1.38-1.36-2.37-1.36s-1.95.56-2.4,1.42l-6,8.08v-6.72c0-1.57-1.28-2.85-2.85-2.85s-2.85,1.28-2.85,2.85v6.77l-5.93-8.07c-.48-.91-1.41-1.47-2.46-1.47-.98,0-1.87.51-2.37,1.36-.5.85-.51,1.87,0,2.76l10.71,13.88v6.87c0,1.6,1.3,2.89,2.89,2.89s2.89-1.3,2.89-2.89v-6.8l10.77-13.99c.48-.86.47-1.88-.03-2.73Z"/><path class="cls-2" d="m210.3,28.9l-9.62-21.41c-.71-1.58-2.29-2.61-4.03-2.61s-3.32,1.02-4.03,2.6l-9.65,21.41c-.37.83-.3,1.78.19,2.54.49.76,1.33,1.22,2.24,1.22,1.05,0,2.01-.62,2.43-1.58l1.36-3.06h14.73l1.32,3.04c.42.97,1.38,1.6,2.44,1.6h.17c.91,0,1.74-.46,2.24-1.22s.57-1.71.19-2.54Zm-8.41-5.57h-10.6l5.36-12.03,5.24,12.03Z"/><path class="cls-2" d="m154.79,9.29c-1.18-1.36-2.62-2.46-4.28-3.27-1.67-.81-3.53-1.22-5.54-1.22s-3.84.39-5.5,1.16c-1.66.77-3.12,1.83-4.33,3.15-1.21,1.32-2.18,2.84-2.87,4.52-.69,1.69-1.04,3.48-1.04,5.33s.33,3.53.98,5.21c.65,1.69,1.59,3.22,2.77,4.56,1.19,1.35,2.63,2.43,4.3,3.21,1.66.79,3.54,1.18,5.58,1.18s3.8-.39,5.46-1.14c1.66-.76,3.12-1.81,4.33-3.13,1.21-1.32,2.17-2.84,2.85-4.52.68-1.69,1.02-3.47,1.02-5.29s-.33-3.52-.98-5.2c-.65-1.67-1.58-3.2-2.75-4.56Zm-2.17,9.68c0,1.08-.17,2.16-.51,3.22-.34,1.06-.84,2.03-1.49,2.89-.64.85-1.46,1.54-2.42,2.05-.96.5-2.08.76-3.31.76s-2.31-.24-3.26-.72c-.95-.48-1.77-1.15-2.42-1.98-.66-.83-1.17-1.8-1.52-2.87-.35-1.07-.53-2.2-.53-3.36s.17-2.19.51-3.24c.34-1.05.84-2.01,1.49-2.86.64-.84,1.45-1.52,2.4-2.03.95-.5,2.07-.76,3.33-.76,1.19,0,2.27.24,3.22.72.95.48,1.77,1.15,2.42,1.97.66.84,1.18,1.8,1.54,2.86.36,1.06.55,2.18.55,3.33Z"/><path class="cls-2" d="m64.18,43.93h3.38c1.07,0,1.9.23,2.48.68.58.45.87,1.09.87,1.91s-.29,1.48-.87,1.94c-.58.46-1.4.69-2.47.68h-1.82v2.99h-1.56v-8.2Zm3.29,4.07c.69,0,1.18-.13,1.46-.4.28-.27.42-.63.42-1.07s-.14-.8-.42-1.06c-.28-.26-.76-.39-1.46-.39h-1.73v2.92h1.73Z"/><path class="cls-2" d="m72.68,43.93h1.56v3.38h4.41v-3.38h1.56v8.2h-1.56v-3.64h-4.41v3.64h-1.56v-8.2Z"/><path class="cls-2" d="m82.63,43.93h1.57v8.2h-1.57v-8.2Z"/><path class="cls-2" d="m86.61,43.93h1.56v7.03h4.33v1.17h-5.89v-8.2Z"/><path class="cls-2" d="m93.78,47.85c0-1.33.38-2.34,1.15-3.04.77-.7,1.75-1.05,2.96-1.05s2.2.35,2.97,1.05c.77.7,1.16,1.72,1.16,3.04v.35c0,1.33-.39,2.34-1.16,3.04-.77.7-1.76,1.05-2.97,1.05s-2.19-.35-2.96-1.05c-.77-.7-1.15-1.71-1.15-3.04v-.35Zm2.28,2.55c.46.47,1.07.71,1.84.71s1.38-.24,1.85-.71c.46-.47.69-1.18.69-2.11v-.52c0-.94-.23-1.64-.69-2.11-.46-.47-1.08-.71-1.85-.71s-1.37.24-1.83.71c-.46.47-.69,1.18-.69,2.11v.52c0,.94.23,1.64.69,2.11Z"/><path class="cls-2" d="m103.66,49.71h1.58v.1c0,.44.18.76.53.99.35.22.85.33,1.49.33s1.13-.11,1.48-.32c.35-.21.52-.49.52-.84s-.15-.6-.46-.79c-.31-.19-.98-.4-2.02-.63-1.06-.24-1.81-.54-2.26-.9-.45-.36-.67-.88-.68-1.56,0-.69.3-1.25.9-1.68.6-.43,1.42-.65,2.47-.65s1.87.23,2.49.7c.62.47.93,1.05.93,1.74v.11h-1.55v-.1c0-.38-.16-.69-.46-.93-.31-.24-.78-.35-1.4-.35s-1.07.1-1.37.28c-.3.19-.45.45-.45.79,0,.3.15.53.46.7.3.17.96.37,1.97.6,1.04.24,1.8.55,2.28.92s.72.92.72,1.66-.32,1.33-.95,1.77c-.64.43-1.5.65-2.58.65s-1.93-.21-2.6-.64c-.66-.43-1-1.04-1-1.84v-.11Z"/><path class="cls-2" d="m112.39,47.85c0-1.33.38-2.34,1.15-3.04.77-.7,1.75-1.05,2.96-1.05s2.2.35,2.97,1.05c.77.7,1.16,1.72,1.16,3.04v.35c0,1.33-.39,2.34-1.16,3.04-.77.7-1.76,1.05-2.97,1.05s-2.19-.35-2.96-1.05c-.77-.7-1.15-1.71-1.15-3.04v-.35Zm2.28,2.55c.46.47,1.07.71,1.84.71s1.39-.24,1.85-.71c.46-.47.69-1.18.69-2.11v-.52c0-.94-.23-1.64-.69-2.11-.46-.47-1.08-.71-1.85-.71s-1.37.24-1.83.71c-.46.47-.69,1.18-.69,2.11v.52c0,.94.23,1.64.69,2.11Z"/><path class="cls-2" d="m122.73,43.93h3.38c1.07,0,1.9.23,2.48.68.58.45.87,1.09.87,1.91s-.29,1.48-.87,1.94c-.58.46-1.4.69-2.47.68h-1.82v2.99h-1.56v-8.2Zm3.29,4.07c.69,0,1.18-.13,1.46-.4.28-.27.42-.63.42-1.07s-.14-.8-.42-1.06c-.28-.26-.76-.39-1.46-.39h-1.73v2.92h1.73Z"/><path class="cls-2" d="m131.23,43.93h1.56v3.38h4.41v-3.38h1.56v8.2h-1.56v-3.64h-4.41v3.64h-1.56v-8.2Z"/><path class="cls-2" d="m143.48,49.19l-3.29-5.27h1.79l2,3.28c.06.11.12.22.18.34.06.11.11.23.15.34h.05c.04-.11.09-.23.15-.34.05-.11.11-.23.17-.34l2.04-3.28h1.57l-3.24,5.2v3h-1.56v-2.93Z"/></svg>